<?xml version="1.0" encoding="utf-8"?>
<!-- Generator: Adobe Illustrator 26.4.1, SVG Export Plug-In . SVG Version: 6.00 Build 0)  -->
<svg version="1.1" id="_экспорт" xmlns="http://www.w3.org/2000/svg" xmlns:xlink="http://www.w3.org/1999/xlink" x="0px"
	 y="0px" viewBox="0 0 1083.7 1082.2" style="enable-background:new 0 0 1083.7 1082.2;" xml:space="preserve">
<style type="text/css">
	.st0{fill:#EBB845;}
	.st1{fill:none;}
</style>
<path class="st0" d="M661.9,357.4H506.8c-6.1,0-11,4.9-11,11v38.6h-0.1l0.1,86.1H458l0.1-162.1h177.1L661.9,357.4z"/>
<rect x="509.8" y="371.4" class="st0" width="162.1" height="35.6"/>
<polygon class="st0" points="492.5,679 457.3,679 457.3,567 491.8,598.6 "/>
<polygon class="st0" points="618.6,588.5 501.5,588.5 468.3,558.1 584.7,558.1 "/>
<polygon class="st0" points="630.4,553.9 630.1,580 594.4,547.9 594.4,517.3 "/>
<polygon class="st0" points="626.7,742.7 626.7,774.3 451.7,774.3 419.6,742.3 "/>
<path class="st0" d="M663.1,693l-32.5,35.7l-221-0.4v-356l34.5-32.2l-0.1,156c0,3,1.1,5.7,3.2,7.8c2.1,2.1,4.9,3.2,7.8,3.2h125.4
	v36.9H454.3c-6.1,0-11,5-11,11V682c0,6.1,4.9,11,11,11L663.1,693L663.1,693z"/>
<polygon class="st0" points="672.7,729.3 640.7,763.6 640.7,738.4 672.2,703.7 "/>
<path class="st0" d="M510.1,229.2c-64.6,0-124.9,18.5-176,50.4c0,0,0,0,0,0c-60.6,59.6-98.6,142.2-99.7,233.5
	C232.2,697.3,381,849,565.1,850.3c65.5,0.4,126.6-18.1,178.4-50.4c61.5-60.5,99.7-144.6,99.7-237.5
	C843.2,378.7,693.8,229.2,510.1,229.2L510.1,229.2z M683.7,738L640,784.8c-2.1,2.2-5,3.5-8.1,3.5H450.5c-2.9,0-5.7-1.1-7.8-3.2
	l-43.8-43.7c-2.1-2.1-3.2-4.9-3.2-7.8V371c0-3,1.3-6,3.5-8.1l46-43c2-1.9,4.7-3,7.5-3h183.7c2.9,0,5.7,1.1,7.8,3.2l38.5,38
	c2.1,2.1,3.3,4.9,3.3,7.9V410c0,6.1-4.9,11-11,11H509.7l0.1,72.1h75.9c2.9,0,5.8,1.2,7.9,3.3l47.7,48.5c2,2.1,3.2,5,3.2,7.9
	l-0.5,38.8c-0.1,6-5,10.9-11,10.9H505.8l0.7,76.5h172.2c3.9,0,7.1,3.1,7.2,7.1l0.8,44.2C686.8,733.2,685.7,735.9,683.7,738
	L683.7,738z M567.4,864.3c-46.9,0-92.3-9.2-135.1-27.3c-41.3-17.5-78.5-42.5-110.3-74.4c-31.9-31.9-56.9-69-74.4-110.3
	c-18.1-42.8-27.3-88.3-27.3-135.1s9.2-92.3,27.3-135.1c9.2-21.8,20.5-42.4,33.8-61.6C217.2,381,177.1,466.9,176.9,562
	c-0.2,183.4,149.8,333.5,333.1,333.5c67.2,0,129.8-20,182.2-54.4C652.5,856.5,610.6,864.3,567.4,864.3z M567.4,184
	c-67.2,0-129.9,20-182.3,54.4c39.8-15.4,81.8-23.2,124.9-23.2c46.9,0,92.3,9.2,135.1,27.3c41.3,17.5,78.5,42.5,110.3,74.4
	s56.9,69,74.4,110.3c18.1,42.8,27.3,88.3,27.3,135.1s-9.2,92.3-27.3,135.1c-9.2,21.8-20.5,42.4-33.8,61.7
	c64.3-60.8,104.5-146.8,104.5-242C900.6,333.4,751.1,184,567.4,184L567.4,184z M567.4,184c-67.2,0-129.9,20-182.3,54.4
	c39.8-15.4,81.8-23.2,124.9-23.2c46.9,0,92.3,9.2,135.1,27.3c41.3,17.5,78.5,42.5,110.3,74.4s56.9,69,74.4,110.3
	c18.1,42.8,27.3,88.3,27.3,135.1s-9.2,92.3-27.3,135.1c-9.2,21.8-20.5,42.4-33.8,61.7c64.3-60.8,104.5-146.8,104.5-242
	C900.6,333.4,751.1,184,567.4,184L567.4,184z M510.1,229.2c-64.6,0-124.9,18.5-176,50.4c0,0,0,0,0,0
	c-60.6,59.6-98.6,142.2-99.7,233.5C232.2,697.3,381,849,565.1,850.3c65.5,0.4,126.6-18.1,178.4-50.4
	c61.5-60.5,99.7-144.6,99.7-237.5C843.2,378.7,693.8,229.2,510.1,229.2L510.1,229.2z M683.7,738L640,784.8c-2.1,2.2-5,3.5-8.1,3.5
	H450.5c-2.9,0-5.7-1.1-7.8-3.2l-43.8-43.7c-2.1-2.1-3.2-4.9-3.2-7.8V371c0-3,1.3-6,3.5-8.1l46-43c2-1.9,4.7-3,7.5-3h183.7
	c2.9,0,5.7,1.1,7.8,3.2l38.5,38c2.1,2.1,3.3,4.9,3.3,7.9V410c0,6.1-4.9,11-11,11H509.7l0.1,72.1h75.9c2.9,0,5.8,1.2,7.9,3.3
	l47.7,48.5c2,2.1,3.2,5,3.2,7.9l-0.5,38.8c-0.1,6-5,10.9-11,10.9H505.8l0.7,76.5h179.3l0.9,51.3C686.8,733.2,685.7,735.9,683.7,738
	L683.7,738z M432.3,837c-41.3-17.5-78.5-42.5-110.3-74.4c-31.9-31.9-56.9-69-74.4-110.3c-18.1-42.8-27.3-88.3-27.3-135.1
	s9.2-92.3,27.3-135.1c9.2-21.8,20.5-42.4,33.8-61.6C217.2,381,177.1,466.9,176.9,562c-0.2,183.4,149.8,333.5,333.1,333.5
	c67.2,0,129.8-20,182.2-54.4c-39.8,15.4-81.8,23.2-124.9,23.2C520.6,864.3,475.1,855.1,432.3,837z M0,0v1080h1080V0H0z M887.3,652.2
	c-17.5,41.3-42.5,78.5-74.4,110.3c-18.5,18.5-38.8,34.7-60.6,48.4c-31.2,30.4-67.2,54.3-107.1,71.2c-42.8,18.1-88.3,27.3-135.1,27.3
	s-92.3-9.2-135.1-27.3c-41.3-17.5-78.5-42.5-110.3-74.4s-56.9-69-74.4-110.3c-18.1-42.8-27.3-88.3-27.3-135.1s9.2-92.3,27.3-135.1
	c17.5-41.3,42.5-78.5,74.4-110.3c18.5-18.5,38.7-34.7,60.6-48.4c31.2-30.4,67.2-54.3,107.1-71.2c42.8-18.1,88.3-27.3,135.1-27.3
	s92.3,9.2,135.1,27.3c41.3,17.5,78.5,42.5,110.3,74.4c31.9,31.9,56.9,69,74.4,110.3c18.1,42.8,27.3,88.3,27.3,135.1
	S905.4,609.5,887.3,652.2z M567.4,184c-67.2,0-129.9,20-182.3,54.4c39.8-15.4,81.8-23.2,124.9-23.2c46.9,0,92.3,9.2,135.1,27.3
	c41.3,17.5,78.5,42.5,110.3,74.4s56.9,69,74.4,110.3c18.1,42.8,27.3,88.3,27.3,135.1s-9.2,92.3-27.3,135.1
	c-9.2,21.8-20.5,42.4-33.8,61.7c64.3-60.8,104.5-146.8,104.5-242C900.6,333.4,751.1,184,567.4,184L567.4,184z M510.1,229.2
	c-64.6,0-124.9,18.5-176,50.4c0,0,0,0,0,0c-60.6,59.6-98.6,142.2-99.7,233.5C232.2,697.3,381,849,565.1,850.3
	c65.5,0.4,126.6-18.1,178.4-50.4c61.5-60.5,99.7-144.6,99.7-237.5C843.2,378.7,693.8,229.2,510.1,229.2L510.1,229.2z M683.7,738
	L640,784.8c-2.1,2.2-5,3.5-8.1,3.5H450.5c-2.9,0-5.7-1.1-7.8-3.2l-43.8-43.7c-2.1-2.1-3.2-4.9-3.2-7.8V371c0-3,1.3-6,3.5-8.1l46-43
	c2-1.9,4.7-3,7.5-3h183.7c2.9,0,5.7,1.1,7.8,3.2l38.5,38c2.1,2.1,3.3,4.9,3.3,7.9V410c0,6.1-4.9,11-11,11H509.7l0.1,72.1h75.9
	c2.9,0,5.8,1.2,7.9,3.3l47.7,48.5c2,2.1,3.2,5,3.2,7.9l-0.5,38.8c-0.1,6-5,10.9-11,10.9H505.8l0.7,76.5h179.3l0.9,51.3
	C686.8,733.2,685.7,735.9,683.7,738L683.7,738z M432.3,837c-41.3-17.5-78.5-42.5-110.3-74.4c-31.9-31.9-56.9-69-74.4-110.3
	c-18.1-42.8-27.3-88.3-27.3-135.1s9.2-92.3,27.3-135.1c9.2-21.8,20.5-42.4,33.8-61.6C217.2,381,177.1,466.9,176.9,562
	c-0.2,183.4,149.8,333.5,333.1,333.5c67.2,0,129.8-20,182.2-54.4c-39.8,15.4-81.8,23.2-124.9,23.2
	C520.6,864.3,475.1,855.1,432.3,837z"/>
<path class="st1" d="M887.3,382c-17.5-41.3-42.5-78.5-74.4-110.3c-31.9-31.9-69-56.9-110.3-74.4c-42.8-18.1-88.3-27.3-135.1-27.3
	s-92.3,9.2-135.1,27.3c-40,16.9-76,40.9-107.1,71.2c-21.8,13.7-42.1,29.9-60.6,48.4c-31.9,31.9-56.9,69-74.4,110.3
	c-18.1,42.8-27.3,88.3-27.3,135.1s9.2,92.3,27.3,135.1c17.5,41.3,42.5,78.5,74.4,110.3s69,56.9,110.3,74.4
	c42.8,18.1,88.3,27.3,135.1,27.3s92.3-9.2,135.1-27.3c40-16.9,76-40.8,107.1-71.2c21.8-13.8,42.1-29.9,60.6-48.4
	c31.9-31.9,56.9-69,74.4-110.3c18.1-42.8,27.3-88.3,27.3-135.1S905.4,424.8,887.3,382L887.3,382z M510.1,895.5
	c-183.7,0-333.1-149.4-333.1-333.1c0-95.2,40.2-181.2,104.4-242c-13.3,19.3-24.6,39.9-33.8,61.6c-18.1,42.8-27.3,88.3-27.3,135.1
	s9.2,92.3,27.3,135.1c17.5,41.3,42.5,78.5,74.4,110.3c31.9,31.9,69,56.9,110.3,74.4c42.8,18.1,88.3,27.3,135.1,27.3
	c43.1,0,85.1-7.8,124.9-23.2C639.9,875.5,577.3,895.5,510.1,895.5z M743.5,799.9c-51.1,31.9-111.5,50.4-176,50.4
	c-183.7,0-333.1-149.4-333.1-333.1c0-92.9,38.2-177,99.7-237.5c0,0,0,0,0,0c51.1-31.9,111.5-50.4,176-50.4
	c183.7,0,333.1,149.5,333.1,333.1C843.2,655.3,805,739.4,743.5,799.9L743.5,799.9z M796.1,759.2c13.3-19.3,24.6-39.9,33.8-61.7
	c18.1-42.8,27.3-88.3,27.3-135.1S848,470,829.9,427.2c-17.5-41.3-42.5-78.5-74.4-110.3s-69-56.9-110.3-74.4
	c-42.8-18.1-88.3-27.3-135.1-27.3c-43.2,0-85.1,7.8-124.9,23.2c52.4-34.4,115-54.4,182.3-54.4c183.7,0,333.1,149.4,333.1,333.1
	C900.6,612.4,860.4,698.4,796.1,759.2z"/>
<path class="st1" d="M685.8,679H506.5l-0.7-76.5h127.1c6,0,10.9-4.9,11-10.9l0.5-38.8c0-2.9-1.1-5.8-3.2-7.9l-47.7-48.5
	c-2.1-2.1-4.9-3.3-7.9-3.3h-75.9l-0.1-72.1h165.2c6.1,0,11-4.9,11-11v-43.9c0-2.9-1.2-5.8-3.3-7.9l-38.5-38c-2.1-2-4.8-3.2-7.8-3.2
	H452.7c-2.8,0-5.5,1-7.5,3l-46,43c-2.2,2.1-3.5,5-3.5,8.1v362.6c0,3,1.1,5.7,3.2,7.8l43.8,43.7c2.1,2.1,4.8,3.2,7.8,3.2h181.5
	c3,0,6-1.3,8.1-3.5l43.7-46.8c2-2.1,3-4.8,3-7.7L685.8,679L685.8,679z M594.4,517.3l36,36.6l-0.3,26.1l-35.7-32V517.3L594.4,517.3z
	 M618.6,588.5H501.5l-33.2-30.4h116.4L618.6,588.5z M492.5,679h-35.2V567l34.5,31.6L492.5,679z M671.9,407.1H509.8v-35.6h162.1
	V407.1z M458.1,331h177.1l26.7,26.4H506.8c-6.1,0-11,4.9-11,11v38.6h-0.1l0.1,86.1H458L458.1,331L458.1,331z M626.7,774.3h-175
	l-32.1-32l207.1,0.4V774.3z M630.6,728.7l-221-0.4v-356l34.5-32.2l-0.1,156c0,3,1.1,5.7,3.2,7.8c2.1,2.1,4.9,3.2,7.8,3.2h125.4v36.9
	H454.3c-6.1,0-11,5-11,11V682c0,6.1,4.9,11,11,11h208.8L630.6,728.7L630.6,728.7z M640.7,763.6v-25.2l31.5-34.7l0.5,25.6
	L640.7,763.6z"/>
</svg>
